#!OML:ASF E:\Style4\Style4.ASF
:FULLY-SPECIFIED
:DEGREES
1907
root 0.586442 18.1388 -0.999044 6.57962 -7.35008 4.88404
lowerback 3.63484 2.58414 2.97717
upperback -1.44228 3.59977 0.0424811
thorax -3.34227 1.72782 -1.84912
lowerneck 0.964287 -3.63596 -7.75829
upperneck 3.2044 -5.08303 7.99159
head 1.31203 -2.55988 3.95197
rclavicle 2.08724e-015 -7.95139e-016
rhumerus -90.5727 56.4582 -124.645
rradius 90.351
rwrist -2.23604
rhand 0.855151 28.3076
rfingers 7.12502
rthumb 26.4092 0.127136
lclavicle 2.08724e-015 -7.95139e-016
lhumerus -23.6115 20.7799 16.4388
lradius 103.036
lwrist -14.2368
lhand -9.72087 36.3054
lfingers 7.12502
lthumb 16.2524 65.6442
rfemur -12.4908 6.62638 9.73692
rtibia 21.6627
rfoot -15.0313 -14.8662
rtoes -14.4364
lfemur -2.54262 0.958367 -27.2689
ltibia 7.85415
lfoot -13.2046 12.73
ltoes -11.5888
1908
root 0.609456 18.1329 -0.992887 6.41787 -7.51775 5.1509
lowerback 3.65122 2.52896 3.14269
upperback -1.39982 3.53747 0.155026
thorax -3.30823 1.69532 -1.82146
lowerneck 0.896741 -3.57263 -7.766
upperneck 3.37202 -4.99679 7.84532
head 1.36647 -2.5169 3.90147
rclavicle -5.52621e-014 -4.77083e-015
rhumerus -90.5733 56.5802 -124.522
rradius 90.5657
rwrist -2.23374
rhand 1.03121 28.2705
rfingers 7.12502
rthumb 26.5777 0.115464
lclavicle -5.52621e-014 -4.77083e-015
lhumerus -24.0067 20.8322 16.6697
lradius 103.403
lwrist -14.4412
lhand -9.56273 36.3395
lfingers 7.12502
lthumb 16.4047 65.6658
rfemur -12.5296 6.75229 9.34661
rtibia 21.9508
rfoot -15.2456 -14.7823
rtoes -13.9716
lfemur -2.0257 1.09296 -27.6561
ltibia 7.1994
lfoot -13.0309 12.7693
ltoes -11.3118
1909
root 0.629451 18.127 -0.989317 6.29552 -7.82685 5.39418
lowerback 3.70884 2.54301 3.28547
upperback -1.40012 3.56853 0.252053
thorax -3.33722 1.70798 -1.80598
lowerneck 0.810977 -3.53951 -7.8207
upperneck 3.61152 -4.95529 7.7746
head 1.45601 -2.49609 3.88579
rclavicle -2.82274e-014 -3.18055e-015
rhumerus -90.6037 56.6298 -124.412
rradius 90.7769
rwrist -2.20949
rhand 0.794517 28.2459
rfingers 7.12502
rthumb 26.3512 0.0567556
lclavicle -2.82274e-014 -3.18055e-015
lhumerus -24.3602 20.805 16.9239
lradius 103.799
lwrist -14.5704
lhand -9.53505 36.4491
lfingers 7.12502
lthumb 16.4313 65.7732
rfemur -12.6569 6.94022 8.97274
rtibia 22.2252
rfoot -15.3446 -14.7017
rtoes -13.7202
lfemur -1.43792 1.36076 -28.0107
ltibia 6.2776
lfoot -12.651 12.9282
ltoes -11.8923
1910
root 0.64712 18.1218 -0.983819 6.22372 -8.13467 5.69571
lowerback 3.67819 2.56944 3.3681
upperback -1.41029 3.60808 0.290861
thorax -3.32596 1.72634 -1.813
lowerneck 0.73107 -3.53338 -7.82101
upperneck 3.82544 -4.95058 7.74706
head 1.53922 -2.49266 3.87432
rclavicle -4.4329e-014 -2.06736e-014
rhumerus -90.5295 56.6232 -124.275
rradius 90.9681
rwrist -2.21272
rhand 0.730597 28.1256
rfingers 7.12502
rthumb 26.29 -0.0727566
lclavicle -4.4329e-014 -2.06736e-014
lhumerus -24.687 20.6739 17.1567
lradius 104.224
lwrist -14.5877
lhand -9.63845 36.4372
lfingers 7.12502
lthumb 16.3318 65.7695
rfemur -12.843 7.12807 8.53625
rtibia 22.505
rfoot -15.4259 -14.6593
rtoes -13.9646
lfemur -0.864298 1.615 -28.411
ltibia 5.28042
lfoot -12.2085 13.0191
ltoes -12.1354
1911
root 0.664705 18.1165 -0.97463 6.04314 -8.36088 6.0098
lowerback 3.69072 2.54163 3.47798
upperback -1.3815 3.57693 0.315966
thorax -3.30006 1.70947 -1.84623
lowerneck 0.745202 -3.49326 -7.8139
upperneck 3.97211 -4.90223 7.68921
head 1.57826 -2.46948 3.85347
rclavicle -7.17613e-014 -4.77083e-015
rhumerus -90.5124 56.6513 -124.243
rradius 91.1626
rwrist -2.27432
rhand 0.954014 27.9533
rfingers 7.12502
rthumb 26.5038 -0.21299
lclavicle -7.17613e-014 -4.77083e-015
lhumerus -25.1359 20.5074 17.314
lradius 104.671
lwrist -14.6578
lhand -9.73856 36.3453
lfingers 7.12502
lthumb 16.2354 65.6855
rfemur -12.875 7.32602 8.11069
rtibia 22.7743
rfoot -15.6062 -14.6273
rtoes -14.0642
lfemur -0.111591 1.80519 -28.8183
ltibia 4.21353
lfoot -11.793 13.0533
ltoes -11.4962
